<svg width="78" height="15" viewBox="0 0 78 15" fill="none" xmlns="http://www.w3.org/2000/svg">
<g id="Nexcent">
<path d="M12.0899 0.19104V14.3655H9.50142L3.33468 5.44419H3.23086V14.3655H0.234009V0.19104H2.86404L8.98234 9.10548H9.10692V0.19104H12.0899Z" fill="#263238"/>
<path d="M19.3554 14.5732C18.2619 14.5732 17.3206 14.3517 16.5316 13.9087C15.7472 13.4612 15.1427 12.8291 14.7182 12.0124C14.2937 11.191 14.0815 10.2198 14.0815 9.09855C14.0815 8.00501 14.2937 7.04528 14.7182 6.21936C15.1427 5.39343 15.7403 4.74977 16.5108 4.28836C17.286 3.82695 18.195 3.59624 19.2377 3.59624C19.9391 3.59624 20.592 3.70929 21.1964 3.93538C21.8055 4.15686 22.3361 4.49138 22.7883 4.93895C23.2451 5.38651 23.6004 5.94943 23.8541 6.62771C24.1079 7.30136 24.2348 8.09037 24.2348 8.99474V9.80451H15.2581V7.97733H21.4594C21.4594 7.55283 21.3672 7.17678 21.1826 6.84918C20.998 6.52158 20.7419 6.2655 20.4143 6.08093C20.0914 5.89176 19.7153 5.79717 19.2862 5.79717C18.8386 5.79717 18.4418 5.90098 18.0958 6.10862C17.7543 6.31164 17.4867 6.58618 17.2929 6.93224C17.0991 7.27368 16.9999 7.65434 16.9953 8.07422V9.81143C16.9953 10.3374 17.0922 10.7919 17.286 11.1749C17.4844 11.5579 17.7635 11.8532 18.1234 12.0608C18.4833 12.2684 18.9101 12.3723 19.4039 12.3723C19.7315 12.3723 20.0314 12.3261 20.3036 12.2338C20.5758 12.1416 20.8088 12.0031 21.0026 11.8186C21.1964 11.634 21.3441 11.4079 21.4456 11.1403L24.1725 11.3202C24.0341 11.9754 23.7503 12.5476 23.3212 13.0367C22.8967 13.5212 22.3476 13.8995 21.674 14.1718C21.0049 14.4394 20.2321 14.5732 19.3554 14.5732Z" fill="#263238"/>
<path d="M28.4325 3.73467L30.3842 7.45132L32.3845 3.73467H35.409L32.3291 9.05011L35.4921 14.3655H32.4814L30.3842 10.6904L28.3217 14.3655H25.2764L28.4325 9.05011L25.3872 3.73467H28.4325Z" fill="#263238"/>
<path d="M41.5827 14.5732C40.4937 14.5732 39.5571 14.3425 38.7727 13.8811C37.9929 13.415 37.3931 12.7691 36.9732 11.9431C36.5579 11.1172 36.3503 10.1667 36.3503 9.09163C36.3503 8.00271 36.5602 7.04759 36.9801 6.22628C37.4046 5.40036 38.0067 4.75669 38.7865 4.29528C39.5663 3.82926 40.4937 3.59624 41.5688 3.59624C42.4963 3.59624 43.3083 3.76466 44.0051 4.10149C44.7018 4.43832 45.2532 4.91126 45.6592 5.52032C46.0653 6.12938 46.289 6.84457 46.3306 7.66588H43.5483C43.4698 7.13526 43.2622 6.70845 42.9254 6.38547C42.5931 6.05786 42.1571 5.89406 41.6173 5.89406C41.1605 5.89406 40.7614 6.01864 40.4199 6.26781C40.0831 6.51235 39.8201 6.86995 39.6309 7.34058C39.4417 7.81122 39.3471 8.38106 39.3471 9.05011C39.3471 9.72838 39.4394 10.3051 39.624 10.7804C39.8132 11.2556 40.0785 11.6179 40.4199 11.867C40.7614 12.1162 41.1605 12.2408 41.6173 12.2408C41.9541 12.2408 42.2563 12.1715 42.5239 12.0331C42.7962 11.8947 43.02 11.694 43.1953 11.431C43.3752 11.1634 43.4929 10.8427 43.5483 10.4689H46.3306C46.2844 11.281 46.0629 11.9962 45.6661 12.6145C45.2739 13.2282 44.7318 13.708 44.0397 14.0541C43.3476 14.4002 42.5286 14.5732 41.5827 14.5732Z" fill="#263238"/>
<path d="M53.0631 14.5732C51.9696 14.5732 51.0283 14.3517 50.2393 13.9087C49.4549 13.4612 48.8504 12.8291 48.4259 12.0124C48.0014 11.191 47.7892 10.2198 47.7892 9.09855C47.7892 8.00501 48.0014 7.04528 48.4259 6.21936C48.8504 5.39343 49.448 4.74977 50.2185 4.28836C50.9937 3.82695 51.9027 3.59624 52.9455 3.59624C53.6468 3.59624 54.2997 3.70929 54.9041 3.93538C55.5132 4.15686 56.0438 4.49138 56.496 4.93895C56.9528 5.38651 57.3081 5.94943 57.5619 6.62771C57.8156 7.30136 57.9425 8.09037 57.9425 8.99474V9.80451H48.9658V7.97733H55.1671C55.1671 7.55283 55.0749 7.17678 54.8903 6.84918C54.7057 6.52158 54.4496 6.2655 54.122 6.08093C53.7991 5.89176 53.423 5.79717 52.9939 5.79717C52.5463 5.79717 52.1495 5.90098 51.8035 6.10862C51.462 6.31164 51.1944 6.58618 51.0006 6.93224C50.8068 7.27368 50.7076 7.65434 50.703 8.07422V9.81143C50.703 10.3374 50.7999 10.7919 50.9937 11.1749C51.1921 11.5579 51.4712 11.8532 51.8311 12.0608C52.191 12.2684 52.6178 12.3723 53.1116 12.3723C53.4392 12.3723 53.7391 12.3261 54.0113 12.2338C54.2835 12.1416 54.5165 12.0031 54.7103 11.8186C54.9041 11.634 55.0518 11.4079 55.1533 11.1403L57.8802 11.3202C57.7418 11.9754 57.458 12.5476 57.0289 13.0367C56.6044 13.5212 56.0554 13.8995 55.3817 14.1718C54.7127 14.4394 53.9398 14.5732 53.0631 14.5732Z" fill="#263238"/>
<path d="M62.815 8.21957V14.3655H59.8666V3.73467H62.6766V5.6103H62.8012C63.0365 4.99201 63.431 4.50291 63.9847 4.14301C64.5384 3.7785 65.2097 3.59624 65.9987 3.59624C66.737 3.59624 67.3807 3.75774 67.9297 4.08072C68.4788 4.40371 68.9056 4.86512 69.2101 5.46495C69.5147 6.06017 69.6669 6.77074 69.6669 7.59667V14.3655H66.7185V8.12267C66.7231 7.47209 66.557 6.96453 66.2202 6.60002C65.8834 6.23089 65.4197 6.04633 64.8291 6.04633C64.4322 6.04633 64.0816 6.13169 63.777 6.30241C63.4771 6.47313 63.2418 6.72229 63.0711 7.0499C62.905 7.37288 62.8196 7.76277 62.815 8.21957Z" fill="#263238"/>
<path d="M77.6453 3.73467V5.94943H71.2432V3.73467H77.6453ZM72.6967 1.18769H75.6451V11.0988C75.6451 11.371 75.6866 11.5832 75.7697 11.7355C75.8527 11.8832 75.9681 11.987 76.1157 12.047C76.268 12.1069 76.4433 12.1369 76.6417 12.1369C76.7801 12.1369 76.9186 12.1254 77.057 12.1023C77.1954 12.0746 77.3015 12.0539 77.3754 12.04L77.8391 14.234C77.6914 14.2802 77.4838 14.3332 77.2162 14.3932C76.9486 14.4578 76.6233 14.497 76.2403 14.5109C75.5297 14.5386 74.9068 14.444 74.3716 14.2271C73.841 14.0103 73.428 13.6734 73.1327 13.2166C72.8374 12.7598 72.6921 12.1831 72.6967 11.4863V1.18769Z" fill="#263238"/>
</g>
</svg>
